# ProBuilder 5.2.2
# https://unity3d.com/unity/features/worldbuilding/probuilder
# 5/15/2024 12:34:46 PM

mtllib ./Cube_(1).mtl
o Cube (1)

g Cube (1)
v 3.814697E-06 -5.960464E-08 0.6119373
v -9.021046 -5.960464E-08 0.6119373
v 3.814697E-06 0.6254411 0.6119373
v -9.021046 0.6254411 0.6119373
v -9.021046 -5.960464E-08 2.384186E-07
v -9.021046 0.6254411 2.384186E-07
v 3.814697E-06 -5.960464E-08 2.384186E-07
v 3.814697E-06 0.6254411 2.384186E-07

vt 3.814697E-06 -5.960464E-08
vt -9.021046 -5.960464E-08
vt 3.814697E-06 0.6254411
vt -9.021046 0.6254411
vt 0.6119373 -5.960464E-08
vt 0.6119373 0.6254411
vt 9.021046 -5.960464E-08
vt 9.021046 0.6254411
vt -0.6119373 -5.960464E-08
vt -0.6119373 0.6254411
vt -3.814697E-06 0.6119373
vt 9.021046 0.6119373
vt -9.021046 0.6119373

vn 0 0 1
vn -1 0 0
vn 0 0 -1
vn 1 0 0
vn 0 1 0
vn 0 -1 0

usemtl Lit
f 3/3/1 4/4/1 2/2/1 1/1/1
f 4/6/2 6/3/2 5/1/2 2/5/2
f 6/8/3 8/3/3 7/1/3 5/7/3
f 8/3/4 3/10/4 1/9/4 7/1/4
f 8/1/5 6/7/5 4/12/5 3/11/5
f 1/11/6 2/13/6 5/2/6 7/1/6

